# xmcd
#
# Track frame offsets:
#	150
#	16425
#	33249
#	38777
#	58479
#	71007
#	87867
#	108429
#	125475
#	139792
#	160346
#	175569
#	193323
#	238315
#
# Disc length: 3623 seconds
#
# Revision: 0
# Processed by: cddbd v1.4PL0 Copyright (c) Steve Scherf et al.
# Submitted via: EZCDDA 4.3.3.2
#
DISCID=c80e250e
DTITLE=Juju Messengers - Sittin' in a bar listening to European blues of a new
DTITLE=century
DYEAR=1900
DGENRE=
TTITLE0=Give me a break
TTITLE1=Assis dans un bar
TTITLE2=Drinkin' Blues - Interlude
TTITLE3=Unknown Man
TTITLE4=Down in the alley
TTITLE5=I'm a devil inside
TTITLE6=Let's sit inna bar
TTITLE7=Born under a bad sign
TTITLE8=Elle est partie
TTITLE9=Famished man
TTITLE10=Wannabe
TTITLE11=Waitin' for the summer
TTITLE12=Blues bar instrumental
TTITLE13=New kinda
EXTD=
EXTT0=
EXTT1=
EXTT2=
EXTT3=
EXTT4=
EXTT5=
EXTT6=
EXTT7=
EXTT8=
EXTT9=
EXTT10=
EXTT11=
EXTT12=
EXTT13=
PLAYORDER=
